# 3ds Max Wavefront OBJ Exporter v0.97b - (c)2007 guruware
# File Created: 04.11.2014 17:08:13

mtllib pen.mtl

#
# object 1_1
#

v  0.2032 0.0000 -0.0000
v  0.0000 0.0000 -0.0000
v  0.0000 0.0000 -0.0508
v  0.2032 0.0000 -0.0508
v  0.0000 0.0063 -0.0000
v  0.2032 0.0063 -0.0000
v  0.2032 0.0063 -0.0508
v  0.0000 0.0063 -0.0508
v  0.0502 0.0089 -0.0265
v  0.0508 0.0089 -0.0267
v  0.0508 0.0063 -0.0286
v  0.0492 0.0063 -0.0281
v  0.0497 0.0089 -0.0260
v  0.0481 0.0063 -0.0270
v  0.0495 0.0089 -0.0254
v  0.0476 0.0063 -0.0254
v  0.0497 0.0089 -0.0248
v  0.0481 0.0063 -0.0238
v  0.0502 0.0089 -0.0243
v  0.0492 0.0063 -0.0227
v  0.0508 0.0089 -0.0241
v  0.0508 0.0063 -0.0222
v  0.0514 0.0089 -0.0243
v  0.0524 0.0063 -0.0227
v  0.0519 0.0089 -0.0248
v  0.0535 0.0063 -0.0238
v  0.0521 0.0089 -0.0254
v  0.0540 0.0063 -0.0254
v  0.0519 0.0089 -0.0260
v  0.0535 0.0063 -0.0270
v  0.0514 0.0089 -0.0265
v  0.0524 0.0063 -0.0281
v  0.0486 0.0639 -0.0094
v  0.0508 0.0641 -0.0099
v  0.0508 0.0340 -0.0201
v  0.0490 0.0338 -0.0196
v  0.0471 0.0633 -0.0079
v  0.0477 0.0334 -0.0184
v  0.0465 0.0626 -0.0059
v  0.0472 0.0328 -0.0167
v  0.0471 0.0619 -0.0038
v  0.0477 0.0322 -0.0150
v  0.0486 0.0613 -0.0023
v  0.0490 0.0317 -0.0138
v  0.0508 0.0611 -0.0018
v  0.0508 0.0315 -0.0134
v  0.0530 0.0613 -0.0023
v  0.0526 0.0317 -0.0138
v  0.0545 0.0619 -0.0038
v  0.0539 0.0322 -0.0150
v  0.0551 0.0626 -0.0059
v  0.0544 0.0328 -0.0167
v  0.0545 0.0633 -0.0079
v  0.0539 0.0334 -0.0184
v  0.0530 0.0639 -0.0094
v  0.0526 0.0338 -0.0196
v  0.0508 0.0093 -0.0266
v  0.0502 0.0093 -0.0264
v  0.0497 0.0091 -0.0260
v  0.0497 0.0087 -0.0248
v  0.0502 0.0085 -0.0244
v  0.0508 0.0085 -0.0242
v  0.0514 0.0085 -0.0244
v  0.0519 0.0087 -0.0248
v  0.0519 0.0091 -0.0260
v  0.0514 0.0093 -0.0264
v  0.0485 0.0908 0.0002
v  0.0508 0.0910 -0.0004
v  0.0508 0.0880 -0.0015
v  0.0485 0.0878 -0.0009
v  0.0468 0.0902 0.0018
v  0.0468 0.0872 0.0007
v  0.0462 0.0894 0.0039
v  0.0462 0.0865 0.0028
v  0.0468 0.0887 0.0061
v  0.0468 0.0857 0.0050
v  0.0485 0.0881 0.0076
v  0.0485 0.0851 0.0066
v  0.0508 0.0879 0.0082
v  0.0508 0.0849 0.0071
v  0.0531 0.0881 0.0076
v  0.0531 0.0851 0.0066
v  0.0548 0.0887 0.0061
v  0.0548 0.0857 0.0050
v  0.0554 0.0894 0.0039
v  0.0554 0.0865 0.0028
v  0.0548 0.0902 0.0018
v  0.0548 0.0872 0.0007
v  0.0531 0.0908 0.0002
v  0.0531 0.0878 -0.0009
v  0.0502 0.1525 0.0257
v  0.0508 0.1525 0.0255
v  0.0508 0.1294 0.0147
v  0.0490 0.1293 0.0151
v  0.0497 0.1523 0.0261
v  0.0477 0.1288 0.0164
v  0.0495 0.1521 0.0267
v  0.0472 0.1282 0.0180
v  0.0497 0.1519 0.0273
v  0.0477 0.1276 0.0197
v  0.0502 0.1517 0.0278
v  0.0490 0.1272 0.0209
v  0.0508 0.1517 0.0279
v  0.0508 0.1270 0.0214
v  0.0514 0.1517 0.0278
v  0.0526 0.1272 0.0209
v  0.0519 0.1519 0.0273
v  0.0539 0.1276 0.0197
v  0.0521 0.1521 0.0267
v  0.0544 0.1282 0.0180
v  0.0519 0.1523 0.0261
v  0.0539 0.1288 0.0164
v  0.0514 0.1525 0.0257
v  0.0526 0.1293 0.0151
v  0.0508 0.1058 0.0053
v  0.0486 0.1056 0.0058
v  0.0471 0.1051 0.0073
v  0.0465 0.1044 0.0093
v  0.0471 0.1036 0.0114
v  0.0486 0.1031 0.0129
v  0.0508 0.1029 0.0134
v  0.0530 0.1031 0.0129
v  0.0545 0.1036 0.0114
v  0.0551 0.1044 0.0093
v  0.0545 0.1051 0.0073
v  0.0530 0.1056 0.0058
v  0.1518 0.0089 -0.0265
v  0.1524 0.0089 -0.0267
v  0.1524 0.0063 -0.0286
v  0.1508 0.0063 -0.0281
v  0.1513 0.0089 -0.0260
v  0.1497 0.0063 -0.0270
v  0.1511 0.0089 -0.0254
v  0.1492 0.0063 -0.0254
v  0.1513 0.0089 -0.0248
v  0.1497 0.0063 -0.0238
v  0.1518 0.0089 -0.0243
v  0.1508 0.0063 -0.0227
v  0.1524 0.0089 -0.0241
v  0.1524 0.0063 -0.0222
v  0.1530 0.0089 -0.0243
v  0.1540 0.0063 -0.0227
v  0.1535 0.0089 -0.0248
v  0.1551 0.0063 -0.0238
v  0.1537 0.0089 -0.0254
v  0.1556 0.0063 -0.0254
v  0.1535 0.0089 -0.0260
v  0.1551 0.0063 -0.0270
v  0.1530 0.0089 -0.0265
v  0.1540 0.0063 -0.0281
v  0.1502 0.0639 -0.0094
v  0.1524 0.0641 -0.0099
v  0.1524 0.0340 -0.0201
v  0.1506 0.0338 -0.0196
v  0.1487 0.0633 -0.0079
v  0.1493 0.0334 -0.0184
v  0.1481 0.0626 -0.0059
v  0.1488 0.0328 -0.0167
v  0.1487 0.0619 -0.0038
v  0.1493 0.0322 -0.0150
v  0.1502 0.0613 -0.0023
v  0.1506 0.0317 -0.0138
v  0.1524 0.0611 -0.0018
v  0.1524 0.0315 -0.0134
v  0.1546 0.0613 -0.0023
v  0.1542 0.0317 -0.0138
v  0.1561 0.0619 -0.0038
v  0.1555 0.0322 -0.0150
v  0.1567 0.0626 -0.0059
v  0.1560 0.0328 -0.0167
v  0.1561 0.0633 -0.0079
v  0.1555 0.0334 -0.0184
v  0.1546 0.0639 -0.0094
v  0.1542 0.0338 -0.0196
v  0.1524 0.0093 -0.0266
v  0.1518 0.0093 -0.0264
v  0.1513 0.0091 -0.0260
v  0.1513 0.0087 -0.0248
v  0.1518 0.0085 -0.0244
v  0.1524 0.0085 -0.0242
v  0.1530 0.0085 -0.0244
v  0.1535 0.0087 -0.0248
v  0.1535 0.0091 -0.0260
v  0.1530 0.0093 -0.0264
v  0.1501 0.0908 0.0002
v  0.1524 0.0910 -0.0004
v  0.1524 0.0880 -0.0015
v  0.1501 0.0878 -0.0009
v  0.1484 0.0902 0.0018
v  0.1484 0.0872 0.0007
v  0.1478 0.0894 0.0039
v  0.1478 0.0865 0.0028
v  0.1484 0.0887 0.0061
v  0.1484 0.0857 0.0050
v  0.1501 0.0881 0.0076
v  0.1501 0.0851 0.0066
v  0.1524 0.0879 0.0082
v  0.1524 0.0849 0.0071
v  0.1547 0.0881 0.0076
v  0.1547 0.0851 0.0066
v  0.1564 0.0887 0.0061
v  0.1564 0.0857 0.0050
v  0.1570 0.0894 0.0039
v  0.1570 0.0865 0.0028
v  0.1564 0.0902 0.0018
v  0.1564 0.0872 0.0007
v  0.1547 0.0908 0.0002
v  0.1547 0.0878 -0.0009
v  0.1518 0.1525 0.0257
v  0.1524 0.1525 0.0255
v  0.1524 0.1294 0.0147
v  0.1506 0.1293 0.0151
v  0.1513 0.1523 0.0261
v  0.1493 0.1288 0.0164
v  0.1511 0.1521 0.0267
v  0.1488 0.1282 0.0180
v  0.1513 0.1519 0.0273
v  0.1493 0.1276 0.0197
v  0.1518 0.1517 0.0278
v  0.1506 0.1272 0.0209
v  0.1524 0.1517 0.0279
v  0.1524 0.1270 0.0214
v  0.1530 0.1517 0.0278
v  0.1542 0.1272 0.0209
v  0.1535 0.1519 0.0273
v  0.1555 0.1276 0.0197
v  0.1537 0.1521 0.0267
v  0.1560 0.1282 0.0180
v  0.1535 0.1523 0.0261
v  0.1555 0.1288 0.0164
v  0.1530 0.1525 0.0257
v  0.1542 0.1293 0.0151
v  0.1524 0.1058 0.0053
v  0.1502 0.1056 0.0058
v  0.1487 0.1051 0.0073
v  0.1481 0.1044 0.0093
v  0.1487 0.1036 0.0114
v  0.1502 0.1031 0.0129
v  0.1524 0.1029 0.0134
v  0.1546 0.1031 0.0129
v  0.1561 0.1036 0.0114
v  0.1567 0.1044 0.0093
v  0.1561 0.1051 0.0073
v  0.1546 0.1056 0.0058
# 244 vertices

vn 0.0000 -1.0000 -0.0000
vn 0.0000 1.0000 -0.0000
vn 0.0000 0.0000 1.0000
vn 1.0000 0.0000 -0.0000
vn 0.0000 0.0000 -1.0000
vn -1.0000 0.0000 -0.0000
vn -0.2514 0.8644 -0.4354
vn -0.0000 0.8644 -0.5028
vn 0.0000 -0.3971 -0.9178
vn -0.4589 -0.3971 -0.7948
vn -0.4354 0.8644 -0.2514
vn -0.7948 -0.3971 -0.4589
vn -0.5028 0.8644 0.0000
vn -0.9178 -0.3971 0.0000
vn -0.4354 0.8644 0.2514
vn -0.7948 -0.3971 0.4589
vn -0.2514 0.8644 0.4354
vn -0.4589 -0.3971 0.7948
vn -0.0000 0.8644 0.5028
vn -0.0000 -0.3971 0.9178
vn 0.2514 0.8644 0.4354
vn 0.4589 -0.3971 0.7948
vn 0.4354 0.8644 0.2514
vn 0.7948 -0.3971 0.4589
vn 0.5028 0.8644 0.0000
vn 0.9178 -0.3971 0.0000
vn 0.4354 0.8644 -0.2514
vn 0.7948 -0.3971 -0.4589
vn 0.2514 0.8644 -0.4354
vn 0.4589 -0.3971 -0.7948
vn -0.3824 0.8319 -0.4020
vn 0.0000 0.8670 -0.4983
vn 0.0000 0.2883 -0.9575
vn -0.4992 0.2426 -0.8318
vn -0.6623 0.7362 -0.1390
vn -0.8646 0.1176 -0.4884
vn -0.7648 0.6054 0.2204
vn -0.9984 -0.0531 -0.0193
vn -0.6623 0.4746 0.5797
vn -0.8646 -0.2239 0.4498
vn -0.3824 0.3789 0.8427
vn -0.4992 -0.3489 0.7932
vn 0.0000 0.3438 0.9390
vn -0.0000 -0.3946 0.9189
vn 0.3824 0.3789 0.8427
vn 0.4992 -0.3489 0.7932
vn 0.6623 0.4746 0.5797
vn 0.8646 -0.2239 0.4498
vn 0.7648 0.6054 0.2204
vn 0.9984 -0.0531 -0.0193
vn 0.6623 0.7362 -0.1390
vn 0.8646 0.1176 -0.4884
vn 0.3824 0.8319 -0.4020
vn 0.4992 0.2426 -0.8318
vn -0.0000 -0.3960 -0.9182
vn -0.3637 -0.4294 -0.8267
vn -0.6299 -0.5204 -0.5765
vn -0.7274 -0.6448 -0.2347
vn -0.6299 -0.7692 0.1071
vn -0.3637 -0.8603 0.3573
vn -0.0000 -0.8936 0.4488
vn 0.3637 -0.8603 0.3573
vn 0.6299 -0.7692 0.1071
vn 0.7274 -0.6448 -0.2347
vn 0.6299 -0.5204 -0.5765
vn 0.3637 -0.4294 -0.8267
vn -0.3786 0.8381 -0.3928
vn -0.0000 0.8728 -0.4881
vn -0.0000 -0.3549 -0.9349
vn -0.3786 -0.3896 -0.8396
vn -0.6557 0.7433 -0.1323
vn -0.6557 -0.4844 -0.5792
vn -0.7572 0.6138 0.2234
vn -0.7572 -0.6138 -0.2234
vn -0.6557 0.4844 0.5792
vn -0.6557 -0.7433 0.1323
vn -0.3786 0.3896 0.8396
vn -0.3786 -0.8381 0.3928
vn 0.0000 0.3549 0.9349
vn 0.0000 -0.8728 0.4881
vn 0.3786 0.3896 0.8396
vn 0.3786 -0.8381 0.3928
vn 0.6557 0.4844 0.5792
vn 0.6557 -0.7433 0.1323
vn 0.7572 0.6138 0.2234
vn 0.7572 -0.6138 -0.2234
vn 0.6557 0.7433 -0.1323
vn 0.6557 -0.4844 -0.5792
vn 0.3786 0.8381 -0.3928
vn 0.3786 -0.3896 -0.8396
vn -0.3802 0.8355 -0.3966
vn -0.0000 0.8704 -0.4924
vn -0.0000 -0.3595 -0.9332
vn -0.3770 -0.3940 -0.8382
vn -0.6585 0.7404 -0.1351
vn -0.6529 -0.4884 -0.5789
vn -0.7604 0.6103 0.2221
vn -0.7539 -0.6173 -0.2247
vn -0.6585 0.4803 0.5794
vn -0.6529 -0.7463 0.1295
vn -0.3802 0.3851 0.8409
vn -0.3770 -0.8406 0.3889
vn -0.0000 0.3503 0.9366
vn -0.0000 -0.8752 0.4838
vn 0.3802 0.3851 0.8409
vn 0.3770 -0.8406 0.3889
vn 0.6585 0.4803 0.5794
vn 0.6529 -0.7463 0.1295
vn 0.7604 0.6103 0.2221
vn 0.7539 -0.6173 -0.2247
vn 0.6585 0.7404 -0.1351
vn 0.6529 -0.4884 -0.5789
vn 0.3802 0.8355 -0.3966
vn 0.3770 -0.3940 -0.8382
vn -0.3637 0.8603 -0.3572
vn -0.0000 0.8936 -0.4488
vn 0.0000 0.3974 -0.9177
vn -0.4991 0.3516 -0.7920
vn -0.6300 0.7692 -0.1071
vn -0.8645 0.2267 -0.4486
vn -0.7274 0.6448 0.2347
vn -0.9982 0.0560 0.0204
vn -0.6299 0.5204 0.5765
vn -0.8645 -0.1148 0.4894
vn -0.3637 0.4294 0.8267
vn -0.4991 -0.2397 0.8327
vn -0.0000 0.3960 0.9182
vn -0.0000 -0.2855 0.9584
vn 0.3637 0.4294 0.8267
vn 0.4991 -0.2397 0.8327
vn 0.6299 0.5204 0.5765
vn 0.8645 -0.1148 0.4894
vn 0.7274 0.6448 0.2347
vn 0.9982 0.0560 0.0204
vn 0.6300 0.7692 -0.1071
vn 0.8645 0.2267 -0.4486
vn 0.3637 0.8603 -0.3572
vn 0.4991 0.3516 -0.7920
vn -0.0000 0.3635 -0.9316
vn -0.4999 0.3177 -0.8057
vn -0.8658 0.1925 -0.4619
vn -0.9997 0.0216 0.0079
vn -0.8658 -0.1494 0.4776
vn -0.4999 -0.2745 0.8214
vn 0.0000 -0.3203 0.9473
vn 0.4999 -0.2745 0.8214
vn 0.8658 -0.1494 0.4776
vn 0.9997 0.0216 0.0079
vn 0.8658 0.1925 -0.4619
vn 0.4999 0.3177 -0.8057
vn -0.0000 -0.3475 -0.9377
vn -0.3811 -0.3824 -0.8417
vn -0.6601 -0.4779 -0.5795
vn -0.7623 -0.6082 -0.2214
vn -0.6601 -0.7386 0.1368
vn -0.3811 -0.8340 0.3990
vn -0.0000 -0.8689 0.4949
vn 0.3811 -0.8340 0.3990
vn 0.6601 -0.7386 0.1368
vn 0.7623 -0.6082 -0.2214
vn 0.6601 -0.4779 -0.5795
vn 0.3811 -0.3824 -0.8417
vn 0.0000 0.8644 -0.5028
vn -0.5028 0.8644 -0.0000
vn -0.9178 -0.3971 -0.0000
vn 0.0000 -0.3946 0.9189
vn 0.0000 0.8728 -0.4881
vn 0.0000 -0.3549 -0.9349
vn -0.6557 -0.4843 -0.5792
vn -0.6557 0.4843 0.5792
vn 0.0000 0.8936 -0.4488
vn 0.0000 -0.2855 0.9584
vn 0.0000 -0.8689 0.4949
# 173 vertex normals

g 1_1
usemtl Paving_Asphalt__
s off
f 1//1 2//1 3//1 4//1 
f 5//2 6//2 7//2 8//2 
f 2//3 1//3 6//3 5//3 
f 1//4 4//4 7//4 6//4 
f 4//5 3//5 8//5 7//5 
f 3//6 2//6 5//6 8//6 
usemtl Metal_Brass
s 1
f 9//7 10//8 11//9 12//10 
f 13//11 9//7 12//10 14//12 
f 15//13 13//11 14//12 16//14 
f 17//15 15//13 16//14 18//16 
f 19//17 17//15 18//16 20//18 
f 21//19 19//17 20//18 22//20 
f 23//21 21//19 22//20 24//22 
f 25//23 23//21 24//22 26//24 
f 27//25 25//23 26//24 28//26 
f 29//27 27//25 28//26 30//28 
f 31//29 29//27 30//28 32//30 
f 10//8 31//29 32//30 11//9 
f 10//8 9//7 13//11 15//13 
f 10//8 15//13 17//15 19//17 
f 10//8 19//17 21//19 23//21 
f 10//8 23//21 25//23 27//25 
f 10//8 27//25 29//27 31//29 
f 11//9 32//30 30//28 28//26 
f 11//9 28//26 26//24 24//22 
f 11//9 24//22 22//20 20//18 
f 11//9 20//18 18//16 16//14 
f 11//9 16//14 14//12 12//10 
f 33//31 34//32 35//33 36//34 
f 37//35 33//31 36//34 38//36 
f 39//37 37//35 38//36 40//38 
f 41//39 39//37 40//38 42//40 
f 43//41 41//39 42//40 44//42 
f 45//43 43//41 44//42 46//44 
f 47//45 45//43 46//44 48//46 
f 49//47 47//45 48//46 50//48 
f 51//49 49//47 50//48 52//50 
f 53//51 51//49 52//50 54//52 
f 55//53 53//51 54//52 56//54 
f 34//32 55//53 56//54 35//33 
f 36//34 35//33 57//55 58//56 
f 38//36 36//34 58//56 59//57 
f 40//38 38//36 59//57 15//58 
f 42//40 40//38 15//58 60//59 
f 44//42 42//40 60//59 61//60 
f 46//44 44//42 61//60 62//61 
f 48//46 46//44 62//61 63//62 
f 50//48 48//46 63//62 64//63 
f 52//50 50//48 64//63 27//64 
f 54//52 52//50 27//64 65//65 
f 56//54 54//52 65//65 66//66 
f 35//33 56//54 66//66 57//55 
f 34//32 33//31 37//35 39//37 
f 34//32 39//37 41//39 43//41 
f 34//32 43//41 45//43 47//45 
f 34//32 47//45 49//47 51//49 
f 34//32 51//49 53//51 55//53 
f 57//55 66//66 65//65 27//64 
f 57//55 27//64 64//63 63//62 
f 57//55 63//62 62//61 61//60 
f 57//55 61//60 60//59 15//58 
f 57//55 15//58 59//57 58//56 
f 67//67 68//68 69//69 70//70 
f 71//71 67//67 70//70 72//72 
f 73//73 71//71 72//72 74//74 
f 75//75 73//73 74//74 76//76 
f 77//77 75//75 76//76 78//78 
f 79//79 77//77 78//78 80//80 
f 81//81 79//79 80//80 82//82 
f 83//83 81//81 82//82 84//84 
f 85//85 83//83 84//84 86//86 
f 87//87 85//85 86//86 88//88 
f 89//89 87//87 88//88 90//90 
f 68//68 89//89 90//90 69//69 
f 68//68 67//67 71//71 73//73 
f 68//68 73//73 75//75 77//77 
f 68//68 77//77 79//79 81//81 
f 68//68 81//81 83//83 85//85 
f 68//68 85//85 87//87 89//89 
f 69//69 90//90 88//88 86//86 
f 69//69 86//86 84//84 82//82 
f 69//69 82//82 80//80 78//78 
f 69//69 78//78 76//76 74//74 
f 69//69 74//74 72//72 70//70 
usemtl Paving_Asphalt__
f 70//91 69//92 34//93 33//94 
f 72//95 70//91 33//94 37//96 
f 74//97 72//95 37//96 39//98 
f 76//99 74//97 39//98 41//100 
f 78//101 76//99 41//100 43//102 
f 80//103 78//101 43//102 45//104 
f 82//105 80//103 45//104 47//106 
f 84//107 82//105 47//106 49//108 
f 86//109 84//107 49//108 51//110 
f 88//111 86//109 51//110 53//112 
f 90//113 88//111 53//112 55//114 
f 69//92 90//113 55//114 34//93 
f 69//92 70//91 72//95 74//97 
f 69//92 74//97 76//99 78//101 
f 69//92 78//101 80//103 82//105 
f 69//92 82//105 84//107 86//109 
f 69//92 86//109 88//111 90//113 
f 34//93 55//114 53//112 51//110 
f 34//93 51//110 49//108 47//106 
f 34//93 47//106 45//104 43//102 
f 34//93 43//102 41//100 39//98 
f 34//93 39//98 37//96 33//94 
f 91//115 92//116 93//117 94//118 
f 95//119 91//115 94//118 96//120 
f 97//121 95//119 96//120 98//122 
f 99//123 97//121 98//122 100//124 
f 101//125 99//123 100//124 102//126 
f 103//127 101//125 102//126 104//128 
f 105//129 103//127 104//128 106//130 
f 107//131 105//129 106//130 108//132 
f 109//133 107//131 108//132 110//134 
f 111//135 109//133 110//134 112//136 
f 113//137 111//135 112//136 114//138 
f 92//116 113//137 114//138 93//117 
f 94//118 93//117 115//139 116//140 
f 96//120 94//118 116//140 117//141 
f 98//122 96//120 117//141 118//142 
f 100//124 98//122 118//142 119//143 
f 102//126 100//124 119//143 120//144 
f 104//128 102//126 120//144 121//145 
f 106//130 104//128 121//145 122//146 
f 108//132 106//130 122//146 123//147 
f 110//134 108//132 123//147 124//148 
f 112//136 110//134 124//148 125//149 
f 114//138 112//136 125//149 126//150 
f 93//117 114//138 126//150 115//139 
f 116//140 115//139 68//151 67//152 
f 117//141 116//140 67//152 71//153 
f 118//142 117//141 71//153 73//154 
f 119//143 118//142 73//154 75//155 
f 120//144 119//143 75//155 77//156 
f 121//145 120//144 77//156 79//157 
f 122//146 121//145 79//157 81//158 
f 123//147 122//146 81//158 83//159 
f 124//148 123//147 83//159 85//160 
f 125//149 124//148 85//160 87//161 
f 126//150 125//149 87//161 89//162 
f 115//139 126//150 89//162 68//151 
f 92//116 91//115 95//119 97//121 
f 92//116 97//121 99//123 101//125 
f 92//116 101//125 103//127 105//129 
f 92//116 105//129 107//131 109//133 
f 92//116 109//133 111//135 113//137 
f 68//151 89//162 87//161 85//160 
f 68//151 85//160 83//159 81//158 
f 68//151 81//158 79//157 77//156 
f 68//151 77//156 75//155 73//154 
f 68//151 73//154 71//153 67//152 
usemtl Metal_Brass
f 127//7 128//163 129//9 130//10 
f 131//11 127//7 130//10 132//12 
f 133//164 131//11 132//12 134//165 
f 135//15 133//164 134//165 136//16 
f 137//17 135//15 136//16 138//18 
f 139//19 137//17 138//18 140//20 
f 141//21 139//19 140//20 142//22 
f 143//23 141//21 142//22 144//24 
f 145//25 143//23 144//24 146//26 
f 147//27 145//25 146//26 148//28 
f 149//29 147//27 148//28 150//30 
f 128//163 149//29 150//30 129//9 
f 128//163 127//7 131//11 133//164 
f 128//163 133//164 135//15 137//17 
f 128//163 137//17 139//19 141//21 
f 128//163 141//21 143//23 145//25 
f 128//163 145//25 147//27 149//29 
f 129//9 150//30 148//28 146//26 
f 129//9 146//26 144//24 142//22 
f 129//9 142//22 140//20 138//18 
f 129//9 138//18 136//16 134//165 
f 129//9 134//165 132//12 130//10 
f 151//31 152//32 153//33 154//34 
f 155//35 151//31 154//34 156//36 
f 157//37 155//35 156//36 158//38 
f 159//39 157//37 158//38 160//40 
f 161//41 159//39 160//40 162//42 
f 163//43 161//41 162//42 164//166 
f 165//45 163//43 164//166 166//46 
f 167//47 165//45 166//46 168//48 
f 169//49 167//47 168//48 170//50 
f 171//51 169//49 170//50 172//52 
f 173//53 171//51 172//52 174//54 
f 152//32 173//53 174//54 153//33 
f 154//34 153//33 175//55 176//56 
f 156//36 154//34 176//56 177//57 
f 158//38 156//36 177//57 133//58 
f 160//40 158//38 133//58 178//59 
f 162//42 160//40 178//59 179//60 
f 164//166 162//42 179//60 180//61 
f 166//46 164//166 180//61 181//62 
f 168//48 166//46 181//62 182//63 
f 170//50 168//48 182//63 145//64 
f 172//52 170//50 145//64 183//65 
f 174//54 172//52 183//65 184//66 
f 153//33 174//54 184//66 175//55 
f 152//32 151//31 155//35 157//37 
f 152//32 157//37 159//39 161//41 
f 152//32 161//41 163//43 165//45 
f 152//32 165//45 167//47 169//49 
f 152//32 169//49 171//51 173//53 
f 175//55 184//66 183//65 145//64 
f 175//55 145//64 182//63 181//62 
f 175//55 181//62 180//61 179//60 
f 175//55 179//60 178//59 133//58 
f 175//55 133//58 177//57 176//56 
f 185//67 186//167 187//168 188//70 
f 189//71 185//67 188//70 190//169 
f 191//73 189//71 190//169 192//74 
f 193//170 191//73 192//74 194//76 
f 195//77 193//170 194//76 196//78 
f 197//79 195//77 196//78 198//80 
f 199//81 197//79 198//80 200//82 
f 201//83 199//81 200//82 202//84 
f 203//85 201//83 202//84 204//86 
f 205//87 203//85 204//86 206//88 
f 207//89 205//87 206//88 208//90 
f 186//167 207//89 208//90 187//168 
f 186//167 185//67 189//71 191//73 
f 186//167 191//73 193//170 195//77 
f 186//167 195//77 197//79 199//81 
f 186//167 199//81 201//83 203//85 
f 186//167 203//85 205//87 207//89 
f 187//168 208//90 206//88 204//86 
f 187//168 204//86 202//84 200//82 
f 187//168 200//82 198//80 196//78 
f 187//168 196//78 194//76 192//74 
f 187//168 192//74 190//169 188//70 
usemtl Paving_Asphalt__
f 188//91 187//92 152//93 151//94 
f 190//95 188//91 151//94 155//96 
f 192//97 190//95 155//96 157//98 
f 194//99 192//97 157//98 159//100 
f 196//101 194//99 159//100 161//102 
f 198//103 196//101 161//102 163//104 
f 200//105 198//103 163//104 165//106 
f 202//107 200//105 165//106 167//108 
f 204//109 202//107 167//108 169//110 
f 206//111 204//109 169//110 171//112 
f 208//113 206//111 171//112 173//114 
f 187//92 208//113 173//114 152//93 
f 187//92 188//91 190//95 192//97 
f 187//92 192//97 194//99 196//101 
f 187//92 196//101 198//103 200//105 
f 187//92 200//105 202//107 204//109 
f 187//92 204//109 206//111 208//113 
f 152//93 173//114 171//112 169//110 
f 152//93 169//110 167//108 165//106 
f 152//93 165//106 163//104 161//102 
f 152//93 161//102 159//100 157//98 
f 152//93 157//98 155//96 151//94 
f 209//115 210//171 211//117 212//118 
f 213//119 209//115 212//118 214//120 
f 215//121 213//119 214//120 216//122 
f 217//123 215//121 216//122 218//124 
f 219//125 217//123 218//124 220//126 
f 221//127 219//125 220//126 222//172 
f 223//129 221//127 222//172 224//130 
f 225//131 223//129 224//130 226//132 
f 227//133 225//131 226//132 228//134 
f 229//135 227//133 228//134 230//136 
f 231//137 229//135 230//136 232//138 
f 210//171 231//137 232//138 211//117 
f 212//118 211//117 233//139 234//140 
f 214//120 212//118 234//140 235//141 
f 216//122 214//120 235//141 236//142 
f 218//124 216//122 236//142 237//143 
f 220//126 218//124 237//143 238//144 
f 222//172 220//126 238//144 239//145 
f 224//130 222//172 239//145 240//146 
f 226//132 224//130 240//146 241//147 
f 228//134 226//132 241//147 242//148 
f 230//136 228//134 242//148 243//149 
f 232//138 230//136 243//149 244//150 
f 211//117 232//138 244//150 233//139 
f 234//140 233//139 186//151 185//152 
f 235//141 234//140 185//152 189//153 
f 236//142 235//141 189//153 191//154 
f 237//143 236//142 191//154 193//155 
f 238//144 237//143 193//155 195//156 
f 239//145 238//144 195//156 197//173 
f 240//146 239//145 197//173 199//158 
f 241//147 240//146 199//158 201//159 
f 242//148 241//147 201//159 203//160 
f 243//149 242//148 203//160 205//161 
f 244//150 243//149 205//161 207//162 
f 233//139 244//150 207//162 186//151 
f 210//171 209//115 213//119 215//121 
f 210//171 215//121 217//123 219//125 
f 210//171 219//125 221//127 223//129 
f 210//171 223//129 225//131 227//133 
f 210//171 227//133 229//135 231//137 
f 186//151 207//162 205//161 203//160 
f 186//151 203//160 201//159 199//158 
f 186//151 199//158 197//173 195//156 
f 186//151 195//156 193//155 191//154 
f 186//151 191//154 189//153 185//152 
# 298 polygons

